<?xml version="1.0" standalone="no"?>
<!DOCTYPE svg PUBLIC "-//W3C//DTD SVG 20010904//EN"
 "http://www.w3.org/TR/2001/REC-SVG-20010904/DTD/svg10.dtd">
<svg version="1.0" xmlns="http://www.w3.org/2000/svg"
 width="512.000000pt" height="512.000000pt" viewBox="0 0 512.000000 512.000000"
 preserveAspectRatio="xMidYMid meet">
<metadata>
Created by potrace 1.11, written by Peter Selinger 2001-2013
</metadata>
<g transform="translate(0.000000,512.000000) scale(0.100000,-0.100000)"
fill="#000000" stroke="none">
<path d="M2575 5105 c-46 -25 -66 -46 -86 -90 l-19 -40 0 65 0 65 -128 -128
c-70 -70 -131 -127 -134 -127 -4 0 -65 58 -136 129 l-128 130 -130 -130 c-71
-71 -131 -129 -135 -129 -3 0 -62 56 -131 125 -69 69 -127 125 -130 125 -3 0
-5 -38 -4 -85 l1 -85 88 -87 c83 -85 87 -90 87 -133 l0 -45 -89 89 -88 88 1
-87 0 -88 88 -87 c84 -83 88 -89 88 -131 l0 -44 -83 83 c-45 45 -85 82 -88 82
-3 0 -5 -38 -4 -85 l0 -85 88 -88 c83 -83 87 -89 87 -131 l0 -44 -81 81 c-45
45 -85 82 -89 82 -4 0 -7 -36 -6 -80 l1 -80 88 -89 87 -88 0 -256 c0 -142 -3
-257 -7 -258 -5 0 -109 -2 -233 -3 -124 -2 -229 -4 -233 -4 -18 -4 -57 -57
-57 -78 0 -32 18 -68 41 -82 11 -7 45 -13 77 -13 l57 -1 1 -1247 c1 -1092 3
-1255 16 -1316 63 -281 241 -504 500 -624 114 -54 184 -71 318 -78 133 -7 214
4 343 47 86 29 88 29 107 10 74 -74 203 -67 266 15 14 18 32 62 41 96 9 35 26
84 38 109 25 49 109 170 147 210 12 14 43 48 67 75 24 28 128 136 230 240 273
280 342 356 447 490 153 197 260 412 288 575 32 191 9 276 -89 321 -22 10 -61
19 -87 19 -76 0 -75 -4 -74 362 1 232 4 320 13 329 7 7 37 13 67 15 63 4 100
20 137 61 40 45 48 75 44 165 -5 88 -6 97 -25 168 -35 133 -84 240 -171 375
-117 179 -225 304 -561 646 -334 341 -434 473 -469 615 -26 109 -80 163 -171
170 -37 4 -62 0 -83 -11z m-542 -263 c83 -83 87 -89 87 -131 l0 -44 -86 84
c-47 46 -90 83 -96 81 -6 -2 -41 -33 -77 -70 -99 -99 -97 -98 -96 -50 1 37 8
48 85 128 47 49 87 89 90 89 3 1 45 -38 93 -87z m437 45 c0 -39 -5 -48 -63
-107 -35 -36 -75 -75 -89 -88 l-25 -22 1 41 c1 39 8 49 86 130 47 48 86 88 88
89 1 0 2 -19 2 -43z m-350 -439 l0 -41 -27 24 c-14 13 -54 52 -87 87 l-61 62
-85 -85 c-46 -47 -87 -85 -90 -85 -3 0 -4 19 -3 41 1 38 8 49 89 130 l87 88
89 -90 c83 -83 88 -91 88 -131z m268 45 c-46 -45 -86 -83 -89 -83 -4 0 -5 19
-3 43 4 37 14 51 87 125 l82 83 3 -43 c3 -41 1 -44 -80 -125z m317 -42 c81
-98 199 -225 376 -406 114 -115 231 -236 260 -269 162 -177 287 -367 329 -499
7 -21 10 -39 8 -41 -1 -1 -24 -14 -49 -29 -62 -35 -115 -96 -153 -176 l-31
-66 -3 -379 c-3 -358 -2 -382 17 -446 32 -103 80 -161 206 -245 19 -12 19 -14
-9 -84 -55 -140 -173 -309 -341 -489 -116 -124 -301 -312 -307 -312 -3 0 -5
508 -5 1128 l-1 1129 60 1 c88 2 131 48 108 118 -20 58 -47 64 -298 61 l-222
-3 0 540 c0 515 1 539 17 516 10 -14 27 -36 38 -49z m-592 -219 c10 -5 9 -82
-2 -82 -5 0 -22 15 -38 33 -17 17 -53 54 -81 81 l-51 49 -82 -81 c-45 -45 -85
-82 -89 -82 -5 0 -6 18 -4 40 4 35 15 52 91 128 l86 87 81 -85 c45 -47 84 -86
89 -88z m359 106 c2 -21 2 -35 -1 -32 -3 2 -44 -34 -91 -81 l-87 -86 2 45 c2
43 8 51 86 131 46 46 85 79 86 72 1 -6 3 -29 5 -49z m-354 -635 l-3 -258 -165
-1 c-91 0 -169 1 -175 3 -6 2 -10 96 -9 259 l1 255 89 90 88 89 88 -90 88 -89
-2 -258z m354 84 l-2 -343 -83 2 c-45 1 -84 2 -87 3 -3 0 -5 116 -5 257 l0
255 85 85 c47 46 87 84 90 84 3 0 4 -154 2 -343z"/>
</g>
</svg>
